HIERARCHY
ROOT Hips
{
	OFFSET 0.000000 0.000000 0.000000
	CHANNELS 6 Xposition Yposition Zposition Xrotation Yrotation Zrotation
	JOINT LeftUpLeg_virtual
	{
		OFFSET 0.000000 0.000000 0.000000
		CHANNELS 3 Xrotation Yrotation Zrotation
		JOINT LeftUpLeg
		{
			OFFSET 13.026900 -6.336304 -1.092800
			CHANNELS 3 Xrotation Yrotation Zrotation
			JOINT LeftLeg
			{
				OFFSET 0.524474 -46.096886 9.782700
				CHANNELS 3 Xrotation Yrotation Zrotation
				JOINT LeftFoot
				{
					OFFSET -0.524474 -53.427422 -12.948200
					CHANNELS 3 Xrotation Yrotation Zrotation
					JOINT LeftToeBase
					{
						OFFSET 0.192200 -14.009700 16.364100
						CHANNELS 3 Xrotation Yrotation Zrotation
						JOINT LeftToe_End
						{
							OFFSET -1.784700 -0.561700 9.474800
							CHANNELS 3 Xrotation Yrotation Zrotation
							End Site
							{
								OFFSET 0 0 0
							}
						}
					}
				}
			}
		}
	}
	JOINT RightUpLeg_virtual
	{
		OFFSET 0.000000 0.000000 0.000000
		CHANNELS 3 Xrotation Yrotation Zrotation
		JOINT RightUpLeg
		{
			OFFSET -12.883000 -6.336304 -1.092800
			CHANNELS 3 Xrotation Yrotation Zrotation
			JOINT RightLeg
			{
				OFFSET -0.524587 -46.096825 9.782800
				CHANNELS 3 Xrotation Yrotation Zrotation
				JOINT RightFoot
				{
					OFFSET 0.524587 -53.427383 -12.948300
					CHANNELS 3 Xrotation Yrotation Zrotation
					JOINT RightToeBase
					{
						OFFSET -0.192200 -14.009700 16.364100
						CHANNELS 3 Xrotation Yrotation Zrotation
						JOINT RightToe_End
						{
							OFFSET 1.784700 -0.561700 9.474800
							CHANNELS 3 Xrotation Yrotation Zrotation
							End Site
							{
								OFFSET 0 0 0
							}
						}
					}
				}
			}
		}
	}
	JOINT Spine_virtual
	{
		OFFSET 0.000000 0.000000 0.000000
		CHANNELS 3 Xrotation Yrotation Zrotation
		JOINT Spine
		{
			OFFSET 0.072000 7.257294 -0.789700
			CHANNELS 3 Xrotation Yrotation Zrotation
			JOINT Spine1
			{
				OFFSET 0.000000 12.508769 -0.658067
				CHANNELS 3 Xrotation Yrotation Zrotation
				JOINT Spine1_split
				{
					OFFSET 0.000000 12.508769 -0.658067
					CHANNELS 3 Xrotation Yrotation Zrotation
					JOINT Spine2
					{
						OFFSET 0.000000 12.508769 -0.658067
						CHANNELS 3 Xrotation Yrotation Zrotation
						JOINT Neck_virtual
						{
							OFFSET 0.000000 0.000000 0.000000
							CHANNELS 3 Xrotation Yrotation Zrotation
							JOINT Neck
							{
								OFFSET 0.000000 14.033295 7.520400
								CHANNELS 3 Xrotation Yrotation Zrotation
								JOINT Head
								{
									OFFSET 0.000000 8.198502 5.703100
									CHANNELS 3 Xrotation Yrotation Zrotation
									JOINT HeadTop_End
									{
										OFFSET 0.000000 17.760803 13.332701
										CHANNELS 3 Xrotation Yrotation Zrotation
										End Site
										{
											OFFSET 0 0 0
										}
									}
								}
							}
						}
						JOINT LeftShoulder_virtual
						{
							OFFSET 0.000000 0.000000 0.000000
							CHANNELS 3 Xrotation Yrotation Zrotation
							JOINT LeftShoulder
							{
								OFFSET 6.292450 5.785301 -0.669000
								CHANNELS 3 Xrotation Yrotation Zrotation
								JOINT LeftShoulder_split
								{
									OFFSET 6.292450 5.785301 -0.669000
									CHANNELS 3 Xrotation Yrotation Zrotation
									JOINT LeftArm
									{
										OFFSET 13.907140 -6.093903 1.965100
										CHANNELS 3 Xrotation Yrotation Zrotation
										JOINT LeftForeArm
										{
											OFFSET 34.140198 0.000000 0.000000
											CHANNELS 3 Xrotation Yrotation Zrotation
											JOINT LeftHand
											{
												OFFSET 40.960209 0.000000 0.000000
												CHANNELS 3 Xrotation Yrotation Zrotation
												End Site
												{
													OFFSET 0 0 0
												}
											}
										}
									}
								}
							}
						}
						JOINT RightShoulder_virtual
						{
							OFFSET 0.000000 0.000000 0.000000
							CHANNELS 3 Xrotation Yrotation Zrotation
							JOINT RightShoulder
							{
								OFFSET -6.292450 5.785301 -0.669000
								CHANNELS 3 Xrotation Yrotation Zrotation
								JOINT RightShoulder_split
								{
									OFFSET -6.292450 5.785301 -0.669000
									CHANNELS 3 Xrotation Yrotation Zrotation
									JOINT RightArm
									{
										OFFSET -13.907140 -6.093903 1.965100
										CHANNELS 3 Xrotation Yrotation Zrotation
										JOINT RightForeArm
										{
											OFFSET -34.140198 0.000000 0.000000
											CHANNELS 3 Xrotation Yrotation Zrotation
											JOINT RightHand
											{
												OFFSET -40.960209 0.000000 0.000000
												CHANNELS 3 Xrotation Yrotation Zrotation
												End Site
												{
													OFFSET 0 0 0
												}
											}
										}
									}
								}
							}
						}
					}
				}
			}
		}
	}
}
MOTION
Frames: 6
Frame Time: 0.03333333
2.647044 109.888458 0.513435 0.000000 0.000000 0.000000 6.032201 -82.351700 7.893795 -25.104972 30.151276 27.748419 22.923134 -8.133927 0.866387 -1.380679 3.648894 -16.188139 -1.340439 -0.000692 -0.000040 0.000000 0.000000 0.000000 6.032201 -82.351700 7.893795 -23.905980 -9.524890 -24.646003 18.222798 3.299173 -4.036423 0.873228 8.846188 21.693104 0.054341 -0.000397 -0.000040 0.000000 0.000000 0.000000 6.032201 -82.351700 7.893795 7.234639 -5.561750 -4.314414 3.166860 -8.381587 -0.481525 0.000000 0.000000 0.000000 0.000000 0.000000 0.000000 3.223302 -8.349605 -0.164302 -11.969826 7.243075 7.032870 90.363116 78.707931 -96.238328 0.000000 0.000000 0.000000 3.223302 -8.349605 -0.164302 5.057002 3.013259 13.147422 0.000000 0.000000 0.000000 -41.358448 14.579300 -0.628181 0.401508 -12.314989 -0.190110 0.000000 0.000000 0.000000 3.223302 -8.349605 -0.164302 -0.725737 3.118720 -19.460495 0.000000 0.000000 0.000000 -43.907625 41.643096 39.880716 179.727590 45.001640 -178.904142 0.000000 0.000000 0.000000 
2.538810 109.885086 0.501301 0.000000 0.000000 0.000000 5.826554 -82.195610 7.737598 -25.005053 30.096969 27.651944 22.869645 -8.187053 0.859535 -1.384485 3.639359 -16.204265 -1.325663 -0.000725 -0.000024 0.000000 0.000000 0.000000 5.826554 -82.195610 7.737598 -23.774425 -9.429652 -24.709574 18.317505 3.097467 -4.057610 0.731339 8.786145 21.769276 0.051896 -0.000405 -0.000027 0.000000 0.000000 0.000000 5.826554 -82.195610 7.737598 7.203228 -5.632672 -4.392364 3.193037 -8.441194 -0.434102 0.000000 0.000000 0.000000 0.000000 0.000000 0.000000 3.256757 -8.414366 -0.119546 -11.939450 7.256022 7.066641 91.444956 78.685439 -97.309644 0.000000 0.000000 0.000000 3.256757 -8.414366 -0.119546 4.942458 3.372600 13.150525 0.000000 0.000000 0.000000 -41.216797 14.374463 -0.890736 0.408205 -12.293920 -0.188310 0.000000 0.000000 0.000000 3.256757 -8.414366 -0.119546 -0.667738 3.236931 -19.377590 0.000000 0.000000 0.000000 -43.532491 41.170526 39.610979 179.791780 44.675431 -178.975818 0.000000 0.000000 0.000000 
2.431534 109.880280 0.489197 0.000000 0.000000 0.000000 5.635844 -82.041814 7.595833 -24.912067 30.047484 27.557708 22.821197 -8.274176 0.850499 -1.390234 3.660226 -16.213269 -1.321093 -0.000671 -0.000045 0.000000 0.000000 0.000000 5.635844 -82.041814 7.595833 -23.646383 -9.334117 -24.772997 18.414516 2.890842 -4.078563 0.589423 8.733584 21.845832 0.049756 -0.000378 -0.000009 0.000000 0.000000 0.000000 5.635844 -82.041814 7.595833 7.175284 -5.700601 -4.479410 3.217082 -8.497976 -0.386804 0.000000 0.000000 0.000000 0.000000 0.000000 0.000000 3.288897 -8.475688 -0.075522 -11.909486 7.269117 7.100595 92.471814 78.666936 -98.326304 0.000000 0.000000 0.000000 3.288897 -8.475688 -0.075522 4.841603 3.655647 13.158286 0.000000 0.000000 0.000000 -41.084080 14.218016 -1.098230 0.414889 -12.271954 -0.186585 0.000000 0.000000 0.000000 3.288897 -8.475688 -0.075522 -0.606759 3.367931 -19.287855 0.000000 0.000000 0.000000 -43.123325 40.675009 39.332997 179.850984 44.352062 -179.040445 0.000000 0.000000 0.000000 
2.325613 109.872643 0.477028 0.000000 0.000000 0.000000 5.455897 -81.891018 7.464572 -24.826732 30.001572 27.471236 22.779004 -8.345894 0.842667 -1.398025 3.661629 -16.224698 -1.337430 -0.000692 -0.000042 0.000000 0.000000 0.000000 5.455897 -81.891018 7.464572 -23.524343 -9.238020 -24.836026 18.517801 2.689309 -4.098911 0.446676 8.679944 21.921309 0.050605 -0.000391 -0.000023 0.000000 0.000000 0.000000 5.455897 -81.891018 7.464572 7.152351 -5.768946 -4.570089 3.238114 -8.558117 -0.333731 0.000000 0.000000 0.000000 0.000000 0.000000 0.000000 3.319810 -8.538089 -0.025665 -11.879792 7.281534 7.134544 93.480728 78.651117 -99.326619 0.000000 0.000000 0.000000 3.319810 -8.538089 -0.025665 4.748875 3.895338 13.168655 0.000000 0.000000 0.000000 -40.954740 14.107537 -1.279146 0.421507 -12.251557 -0.184833 0.000000 0.000000 0.000000 3.319810 -8.538089 -0.025665 -0.544070 3.510626 -19.192401 0.000000 0.000000 0.000000 -42.738447 40.179459 39.071264 179.924135 44.064842 -179.112668 0.000000 0.000000 0.000000 
2.221536 109.863411 0.464912 0.000000 0.000000 0.000000 5.285112 -81.744168 7.342406 -24.748113 29.961024 27.388007 22.742749 -8.441959 0.833315 -1.407885 3.684325 -16.230585 -1.342312 -0.000667 -0.000051 0.000000 0.000000 0.000000 5.285112 -81.744168 7.342406 -23.407070 -9.142547 -24.898857 18.623190 2.487254 -4.119323 0.304976 8.632615 21.996436 0.047812 -0.000386 -0.000038 0.000000 0.000000 0.000000 5.285112 -81.744168 7.342406 7.138165 -5.835749 -4.664291 3.254756 -8.617324 -0.281633 0.000000 0.000000 0.000000 0.000000 0.000000 0.000000 3.347245 -8.598097 0.023612 -11.850002 7.294196 7.168454 94.492341 78.631706 -100.327658 0.000000 0.000000 0.000000 3.347245 -8.598097 0.023612 4.662227 4.109562 13.180284 0.000000 0.000000 0.000000 -40.829419 14.012734 -1.439116 0.428155 -12.230634 -0.183089 0.000000 0.000000 0.000000 3.347245 -8.598097 0.023612 -0.481059 3.664321 -19.092204 0.000000 0.000000 0.000000 -42.338386 39.669520 38.806867 179.991317 43.776451 -179.179399 0.000000 0.000000 0.000000 
2.119709 109.851151 0.452736 0.000000 0.000000 0.000000 5.122075 -81.602141 7.228188 -24.677255 29.925019 27.311054 22.714330 -8.534190 0.824885 -1.420389 3.700259 -16.236674 -1.331014 -0.000675 -0.000024 0.000000 0.000000 0.000000 5.122075 -81.602141 7.228188 -23.297400 -9.047829 -24.961582 18.734551 2.291367 -4.140059 0.163273 8.586658 22.070373 0.046065 -0.000380 -0.000058 0.000000 0.000000 0.000000 5.122075 -81.602141 7.228188 7.129979 -5.903400 -4.758434 3.264525 -8.678630 -0.229578 0.000000 0.000000 0.000000 0.000000 0.000000 0.000000 3.370853 -8.658369 0.073834 -11.820909 7.306081 7.202493 95.436574 78.617649 -101.264350 0.000000 0.000000 0.000000 3.370853 -8.658369 0.073834 4.581544 4.306596 13.192349 0.000000 0.000000 0.000000 -40.707805 13.937699 -1.583542 0.434709 -12.209855 -0.181445 0.000000 0.000000 0.000000 3.370853 -8.658369 0.073834 -0.419023 3.828047 -18.988363 0.000000 0.000000 0.000000 -41.949437 39.157338 38.552651 -179.933766 43.506485 -179.249763 0.000000 0.000000 0.000000 
